<svg xmlns="http://www.w3.org/2000/svg" xmlns:xlink="http://www.w3.org/1999/xlink" width="2048" zoomAndPan="magnify" viewBox="0 0 1536 576" height="768" preserveAspectRatio="xMidYMid meet" version="1.0"><defs><g/><clipPath id="1abfb36327"><path d="M 0.941406 0.585938 L 1484 0.585938 L 1484 519.414062 L 0.941406 519.414062 Z M 0.941406 0.585938 " clip-rule="nonzero"/></clipPath><clipPath id="02599b62a4"><path d="M 48.941406 0.585938 L 1435.058594 0.585938 C 1447.789062 0.585938 1460 5.644531 1469 14.644531 C 1478.003906 23.648438 1483.058594 35.855469 1483.058594 48.585938 L 1483.058594 471.414062 C 1483.058594 484.144531 1478.003906 496.351562 1469 505.355469 C 1460 514.355469 1447.789062 519.414062 1435.058594 519.414062 L 48.941406 519.414062 C 36.210938 519.414062 24 514.355469 15 505.355469 C 5.996094 496.351562 0.941406 484.144531 0.941406 471.414062 L 0.941406 48.585938 C 0.941406 35.855469 5.996094 23.648438 15 14.644531 C 24 5.644531 36.210938 0.585938 48.941406 0.585938 Z M 48.941406 0.585938 " clip-rule="nonzero"/></clipPath><clipPath id="1c00325c8f"><path d="M 0.941406 0.585938 L 1482.433594 0.585938 L 1482.433594 519.414062 L 0.941406 519.414062 Z M 0.941406 0.585938 " clip-rule="nonzero"/></clipPath><clipPath id="7258d5eb53"><path d="M 48.941406 0.585938 L 1435.058594 0.585938 C 1447.789062 0.585938 1460 5.644531 1469 14.644531 C 1478.003906 23.648438 1483.058594 35.855469 1483.058594 48.585938 L 1483.058594 471.414062 C 1483.058594 484.144531 1478.003906 496.351562 1469 505.355469 C 1460 514.355469 1447.789062 519.414062 1435.058594 519.414062 L 48.941406 519.414062 C 36.210938 519.414062 24 514.355469 15 505.355469 C 5.996094 496.351562 0.941406 484.144531 0.941406 471.414062 L 0.941406 48.585938 C 0.941406 35.855469 5.996094 23.648438 15 14.644531 C 24 5.644531 36.210938 0.585938 48.941406 0.585938 Z M 48.941406 0.585938 " clip-rule="nonzero"/></clipPath><linearGradient x1="0.00607319" gradientTransform="matrix(2.026669, 0, 0, 2.026669, 0.92754, 0.586393)" y1="128" x2="731.006071" gradientUnits="userSpaceOnUse" y2="128" id="5c9d3f7bc8"><stop stop-opacity="1" stop-color="rgb(100%, 47.44873%, 63.139343%)" offset="0"/><stop stop-opacity="1" stop-color="rgb(100%, 47.499084%, 62.892151%)" offset="0.00390625"/><stop stop-opacity="1" stop-color="rgb(100%, 47.550964%, 62.644958%)" offset="0.0078125"/><stop stop-opacity="1" stop-color="rgb(100%, 47.601318%, 62.397766%)" offset="0.0117188"/><stop stop-opacity="1" stop-color="rgb(100%, 47.651672%, 62.1521%)" offset="0.015625"/><stop stop-opacity="1" stop-color="rgb(100%, 47.702026%, 61.904907%)" offset="0.0195313"/><stop stop-opacity="1" stop-color="rgb(100%, 47.75238%, 61.659241%)" offset="0.0234375"/><stop stop-opacity="1" stop-color="rgb(100%, 47.802734%, 61.412048%)" offset="0.0273438"/><stop stop-opacity="1" stop-color="rgb(100%, 47.853088%, 61.166382%)" offset="0.03125"/><stop stop-opacity="1" stop-color="rgb(100%, 47.903442%, 60.919189%)" offset="0.0351563"/><stop stop-opacity="1" stop-color="rgb(100%, 47.955322%, 60.673523%)" offset="0.0390625"/><stop stop-opacity="1" stop-color="rgb(100%, 48.005676%, 60.426331%)" offset="0.0429687"/><stop stop-opacity="1" stop-color="rgb(100%, 48.05603%, 60.180664%)" offset="0.046875"/><stop stop-opacity="1" stop-color="rgb(100%, 48.106384%, 59.933472%)" offset="0.0507813"/><stop stop-opacity="1" stop-color="rgb(100%, 48.156738%, 59.687805%)" offset="0.0546875"/><stop stop-opacity="1" stop-color="rgb(100%, 48.207092%, 59.440613%)" offset="0.0585937"/><stop stop-opacity="1" stop-color="rgb(100%, 48.257446%, 59.19342%)" offset="0.0625"/><stop stop-opacity="1" stop-color="rgb(100%, 48.3078%, 58.946228%)" offset="0.0664062"/><stop stop-opacity="1" stop-color="rgb(100%, 48.358154%, 58.700562%)" offset="0.0703125"/><stop stop-opacity="1" stop-color="rgb(100%, 48.408508%, 58.453369%)" offset="0.0742188"/><stop stop-opacity="1" stop-color="rgb(100%, 48.460388%, 58.207703%)" offset="0.078125"/><stop stop-opacity="1" stop-color="rgb(100%, 48.510742%, 57.96051%)" offset="0.0820312"/><stop stop-opacity="1" stop-color="rgb(100%, 48.561096%, 57.714844%)" offset="0.0859375"/><stop stop-opacity="1" stop-color="rgb(100%, 48.61145%, 57.467651%)" offset="0.0898438"/><stop stop-opacity="1" stop-color="rgb(100%, 48.661804%, 57.221985%)" offset="0.09375"/><stop stop-opacity="1" stop-color="rgb(100%, 48.712158%, 56.974792%)" offset="0.0976562"/><stop stop-opacity="1" stop-color="rgb(100%, 48.762512%, 56.729126%)" offset="0.101563"/><stop stop-opacity="1" stop-color="rgb(100%, 48.812866%, 56.481934%)" offset="0.105469"/><stop stop-opacity="1" stop-color="rgb(100%, 48.864746%, 56.236267%)" offset="0.109375"/><stop stop-opacity="1" stop-color="rgb(100%, 48.9151%, 55.989075%)" offset="0.113281"/><stop stop-opacity="1" stop-color="rgb(100%, 48.965454%, 55.741882%)" offset="0.117187"/><stop stop-opacity="1" stop-color="rgb(100%, 49.015808%, 55.49469%)" offset="0.121094"/><stop stop-opacity="1" stop-color="rgb(100%, 49.066162%, 55.249023%)" offset="0.125"/><stop stop-opacity="1" stop-color="rgb(100%, 49.116516%, 55.001831%)" offset="0.128906"/><stop stop-opacity="1" stop-color="rgb(100%, 49.16687%, 54.756165%)" offset="0.132812"/><stop stop-opacity="1" stop-color="rgb(100%, 49.217224%, 54.508972%)" offset="0.136719"/><stop stop-opacity="1" stop-color="rgb(100%, 49.267578%, 54.263306%)" offset="0.140625"/><stop stop-opacity="1" stop-color="rgb(100%, 49.317932%, 54.016113%)" offset="0.144531"/><stop stop-opacity="1" stop-color="rgb(100%, 49.369812%, 53.770447%)" offset="0.148438"/><stop stop-opacity="1" stop-color="rgb(100%, 49.420166%, 53.523254%)" offset="0.152344"/><stop stop-opacity="1" stop-color="rgb(100%, 49.47052%, 53.277588%)" offset="0.15625"/><stop stop-opacity="1" stop-color="rgb(100%, 49.520874%, 53.030396%)" offset="0.160156"/><stop stop-opacity="1" stop-color="rgb(100%, 49.571228%, 52.784729%)" offset="0.164062"/><stop stop-opacity="1" stop-color="rgb(100%, 49.621582%, 52.537537%)" offset="0.167969"/><stop stop-opacity="1" stop-color="rgb(100%, 49.671936%, 52.29187%)" offset="0.171875"/><stop stop-opacity="1" stop-color="rgb(100%, 49.72229%, 52.044678%)" offset="0.175781"/><stop stop-opacity="1" stop-color="rgb(100%, 49.77417%, 51.797485%)" offset="0.179688"/><stop stop-opacity="1" stop-color="rgb(100%, 49.824524%, 51.550293%)" offset="0.183594"/><stop stop-opacity="1" stop-color="rgb(100%, 49.874878%, 51.304626%)" offset="0.1875"/><stop stop-opacity="1" stop-color="rgb(100%, 49.925232%, 51.057434%)" offset="0.191406"/><stop stop-opacity="1" stop-color="rgb(100%, 49.975586%, 50.811768%)" offset="0.195312"/><stop stop-opacity="1" stop-color="rgb(100%, 50.02594%, 50.564575%)" offset="0.199219"/><stop stop-opacity="1" stop-color="rgb(100%, 50.076294%, 50.318909%)" offset="0.203125"/><stop stop-opacity="1" stop-color="rgb(100%, 50.126648%, 50.071716%)" offset="0.207031"/><stop stop-opacity="1" stop-color="rgb(100%, 50.177002%, 49.82605%)" offset="0.210938"/><stop stop-opacity="1" stop-color="rgb(100%, 50.227356%, 49.578857%)" offset="0.214844"/><stop stop-opacity="1" stop-color="rgb(100%, 50.279236%, 49.333191%)" offset="0.21875"/><stop stop-opacity="1" stop-color="rgb(100%, 50.32959%, 49.085999%)" offset="0.222656"/><stop stop-opacity="1" stop-color="rgb(100%, 50.379944%, 48.840332%)" offset="0.226562"/><stop stop-opacity="1" stop-color="rgb(100%, 50.430298%, 48.59314%)" offset="0.230469"/><stop stop-opacity="1" stop-color="rgb(100%, 50.480652%, 48.345947%)" offset="0.234375"/><stop stop-opacity="1" stop-color="rgb(100%, 50.531006%, 48.098755%)" offset="0.238281"/><stop stop-opacity="1" stop-color="rgb(100%, 50.58136%, 47.853088%)" offset="0.242188"/><stop stop-opacity="1" stop-color="rgb(100%, 50.631714%, 47.605896%)" offset="0.246094"/><stop stop-opacity="1" stop-color="rgb(100%, 50.683594%, 47.360229%)" offset="0.25"/><stop stop-opacity="1" stop-color="rgb(100%, 50.733948%, 47.113037%)" offset="0.253906"/><stop stop-opacity="1" stop-color="rgb(100%, 50.784302%, 46.867371%)" offset="0.257813"/><stop stop-opacity="1" stop-color="rgb(100%, 50.834656%, 46.620178%)" offset="0.261719"/><stop stop-opacity="1" stop-color="rgb(100%, 50.88501%, 46.374512%)" offset="0.265625"/><stop stop-opacity="1" stop-color="rgb(100%, 50.935364%, 46.127319%)" offset="0.269531"/><stop stop-opacity="1" stop-color="rgb(100%, 50.985718%, 45.881653%)" offset="0.273438"/><stop stop-opacity="1" stop-color="rgb(100%, 51.036072%, 45.63446%)" offset="0.277344"/><stop stop-opacity="1" stop-color="rgb(100%, 51.086426%, 45.388794%)" offset="0.28125"/><stop stop-opacity="1" stop-color="rgb(100%, 51.13678%, 45.141602%)" offset="0.285156"/><stop stop-opacity="1" stop-color="rgb(100%, 51.18866%, 44.894409%)" offset="0.289062"/><stop stop-opacity="1" stop-color="rgb(100%, 51.239014%, 44.647217%)" offset="0.292969"/><stop stop-opacity="1" stop-color="rgb(100%, 51.289368%, 44.40155%)" offset="0.296875"/><stop stop-opacity="1" stop-color="rgb(100%, 51.339722%, 44.154358%)" offset="0.300781"/><stop stop-opacity="1" stop-color="rgb(100%, 51.390076%, 43.908691%)" offset="0.304688"/><stop stop-opacity="1" stop-color="rgb(100%, 51.44043%, 43.661499%)" offset="0.308594"/><stop stop-opacity="1" stop-color="rgb(100%, 51.490784%, 43.415833%)" offset="0.3125"/><stop stop-opacity="1" stop-color="rgb(100%, 51.541138%, 43.16864%)" offset="0.316406"/><stop stop-opacity="1" stop-color="rgb(100%, 51.593018%, 42.922974%)" offset="0.320312"/><stop stop-opacity="1" stop-color="rgb(100%, 51.643372%, 42.675781%)" offset="0.324219"/><stop stop-opacity="1" stop-color="rgb(100%, 51.693726%, 42.430115%)" offset="0.328125"/><stop stop-opacity="1" stop-color="rgb(100%, 51.74408%, 42.182922%)" offset="0.332031"/><stop stop-opacity="1" stop-color="rgb(100%, 51.794434%, 41.937256%)" offset="0.335938"/><stop stop-opacity="1" stop-color="rgb(100%, 51.844788%, 41.690063%)" offset="0.339844"/><stop stop-opacity="1" stop-color="rgb(100%, 51.895142%, 41.442871%)" offset="0.34375"/><stop stop-opacity="1" stop-color="rgb(100%, 51.945496%, 41.195679%)" offset="0.347656"/><stop stop-opacity="1" stop-color="rgb(100%, 51.997375%, 40.950012%)" offset="0.351562"/><stop stop-opacity="1" stop-color="rgb(100%, 52.047729%, 40.70282%)" offset="0.355469"/><stop stop-opacity="1" stop-color="rgb(100%, 52.098083%, 40.457153%)" offset="0.359375"/><stop stop-opacity="1" stop-color="rgb(100%, 52.148438%, 40.209961%)" offset="0.363281"/><stop stop-opacity="1" stop-color="rgb(100%, 52.198792%, 39.964294%)" offset="0.367187"/><stop stop-opacity="1" stop-color="rgb(100%, 52.249146%, 39.717102%)" offset="0.371094"/><stop stop-opacity="1" stop-color="rgb(100%, 52.2995%, 39.471436%)" offset="0.375"/><stop stop-opacity="1" stop-color="rgb(100%, 52.349854%, 39.224243%)" offset="0.378906"/><stop stop-opacity="1" stop-color="rgb(100%, 52.400208%, 38.978577%)" offset="0.382813"/><stop stop-opacity="1" stop-color="rgb(100%, 52.450562%, 38.731384%)" offset="0.386719"/><stop stop-opacity="1" stop-color="rgb(100%, 52.502441%, 38.485718%)" offset="0.390625"/><stop stop-opacity="1" stop-color="rgb(100%, 52.552795%, 38.238525%)" offset="0.394531"/><stop stop-opacity="1" stop-color="rgb(100%, 52.603149%, 37.991333%)" offset="0.398438"/><stop stop-opacity="1" stop-color="rgb(100%, 52.653503%, 37.744141%)" offset="0.402344"/><stop stop-opacity="1" stop-color="rgb(100%, 52.703857%, 37.498474%)" offset="0.40625"/><stop stop-opacity="1" stop-color="rgb(100%, 52.754211%, 37.251282%)" offset="0.410156"/><stop stop-opacity="1" stop-color="rgb(100%, 52.804565%, 37.005615%)" offset="0.414062"/><stop stop-opacity="1" stop-color="rgb(100%, 52.854919%, 36.758423%)" offset="0.417969"/><stop stop-opacity="1" stop-color="rgb(100%, 52.906799%, 36.512756%)" offset="0.421875"/><stop stop-opacity="1" stop-color="rgb(100%, 52.957153%, 36.265564%)" offset="0.425781"/><stop stop-opacity="1" stop-color="rgb(100%, 53.007507%, 36.019897%)" offset="0.429688"/><stop stop-opacity="1" stop-color="rgb(100%, 53.057861%, 35.772705%)" offset="0.433594"/><stop stop-opacity="1" stop-color="rgb(100%, 53.108215%, 35.527039%)" offset="0.4375"/><stop stop-opacity="1" stop-color="rgb(100%, 53.158569%, 35.279846%)" offset="0.441406"/><stop stop-opacity="1" stop-color="rgb(100%, 53.208923%, 35.03418%)" offset="0.445312"/><stop stop-opacity="1" stop-color="rgb(100%, 53.259277%, 34.786987%)" offset="0.449219"/><stop stop-opacity="1" stop-color="rgb(100%, 53.309631%, 34.539795%)" offset="0.453125"/><stop stop-opacity="1" stop-color="rgb(100%, 53.359985%, 34.292603%)" offset="0.457031"/><stop stop-opacity="1" stop-color="rgb(100%, 53.411865%, 34.046936%)" offset="0.460938"/><stop stop-opacity="1" stop-color="rgb(100%, 53.462219%, 33.799744%)" offset="0.464844"/><stop stop-opacity="1" stop-color="rgb(100%, 53.512573%, 33.554077%)" offset="0.46875"/><stop stop-opacity="1" stop-color="rgb(100%, 53.562927%, 33.306885%)" offset="0.472656"/><stop stop-opacity="1" stop-color="rgb(100%, 53.613281%, 33.061218%)" offset="0.476562"/><stop stop-opacity="1" stop-color="rgb(100%, 53.663635%, 32.814026%)" offset="0.480469"/><stop stop-opacity="1" stop-color="rgb(100%, 53.713989%, 32.568359%)" offset="0.484375"/><stop stop-opacity="1" stop-color="rgb(100%, 53.764343%, 32.321167%)" offset="0.488281"/><stop stop-opacity="1" stop-color="rgb(100%, 53.816223%, 32.0755%)" offset="0.492187"/><stop stop-opacity="1" stop-color="rgb(100%, 53.866577%, 31.828308%)" offset="0.496094"/><stop stop-opacity="1" stop-color="rgb(100%, 53.916931%, 31.582642%)" offset="0.5"/><stop stop-opacity="1" stop-color="rgb(100%, 53.967285%, 31.335449%)" offset="0.503906"/><stop stop-opacity="1" stop-color="rgb(100%, 54.017639%, 31.088257%)" offset="0.507812"/><stop stop-opacity="1" stop-color="rgb(100%, 54.067993%, 30.841064%)" offset="0.511719"/><stop stop-opacity="1" stop-color="rgb(100%, 54.118347%, 30.595398%)" offset="0.515625"/><stop stop-opacity="1" stop-color="rgb(100%, 54.168701%, 30.348206%)" offset="0.519531"/><stop stop-opacity="1" stop-color="rgb(100%, 54.219055%, 30.102539%)" offset="0.523438"/><stop stop-opacity="1" stop-color="rgb(100%, 54.269409%, 29.855347%)" offset="0.527344"/><stop stop-opacity="1" stop-color="rgb(100%, 54.321289%, 29.60968%)" offset="0.53125"/><stop stop-opacity="1" stop-color="rgb(100%, 54.371643%, 29.362488%)" offset="0.535156"/><stop stop-opacity="1" stop-color="rgb(100%, 54.421997%, 29.116821%)" offset="0.539062"/><stop stop-opacity="1" stop-color="rgb(100%, 54.472351%, 28.869629%)" offset="0.542969"/><stop stop-opacity="1" stop-color="rgb(100%, 54.522705%, 28.623962%)" offset="0.546875"/><stop stop-opacity="1" stop-color="rgb(100%, 54.573059%, 28.37677%)" offset="0.550781"/><stop stop-opacity="1" stop-color="rgb(100%, 54.623413%, 28.131104%)" offset="0.554688"/><stop stop-opacity="1" stop-color="rgb(100%, 54.673767%, 27.883911%)" offset="0.558594"/><stop stop-opacity="1" stop-color="rgb(100%, 54.725647%, 27.636719%)" offset="0.5625"/><stop stop-opacity="1" stop-color="rgb(100%, 54.776001%, 27.389526%)" offset="0.566406"/><stop stop-opacity="1" stop-color="rgb(100%, 54.826355%, 27.14386%)" offset="0.570312"/><stop stop-opacity="1" stop-color="rgb(100%, 54.876709%, 26.896667%)" offset="0.574219"/><stop stop-opacity="1" stop-color="rgb(100%, 54.927063%, 26.651001%)" offset="0.578125"/><stop stop-opacity="1" stop-color="rgb(100%, 54.977417%, 26.403809%)" offset="0.582031"/><stop stop-opacity="1" stop-color="rgb(100%, 55.027771%, 26.158142%)" offset="0.585937"/><stop stop-opacity="1" stop-color="rgb(100%, 55.078125%, 25.91095%)" offset="0.589844"/><stop stop-opacity="1" stop-color="rgb(100%, 55.128479%, 25.665283%)" offset="0.59375"/><stop stop-opacity="1" stop-color="rgb(100%, 55.178833%, 25.418091%)" offset="0.597656"/><stop stop-opacity="1" stop-color="rgb(100%, 55.230713%, 25.172424%)" offset="0.601562"/><stop stop-opacity="1" stop-color="rgb(100%, 55.281067%, 24.925232%)" offset="0.605469"/><stop stop-opacity="1" stop-color="rgb(100%, 55.331421%, 24.679565%)" offset="0.609375"/><stop stop-opacity="1" stop-color="rgb(100%, 55.381775%, 24.432373%)" offset="0.613281"/><stop stop-opacity="1" stop-color="rgb(100%, 55.432129%, 24.186707%)" offset="0.617188"/><stop stop-opacity="1" stop-color="rgb(100%, 55.482483%, 23.939514%)" offset="0.621094"/><stop stop-opacity="1" stop-color="rgb(100%, 55.532837%, 23.692322%)" offset="0.625"/><stop stop-opacity="1" stop-color="rgb(100%, 55.583191%, 23.445129%)" offset="0.628906"/><stop stop-opacity="1" stop-color="rgb(100%, 55.635071%, 23.199463%)" offset="0.632812"/><stop stop-opacity="1" stop-color="rgb(100%, 55.685425%, 22.952271%)" offset="0.636719"/><stop stop-opacity="1" stop-color="rgb(100%, 55.735779%, 22.706604%)" offset="0.640625"/><stop stop-opacity="1" stop-color="rgb(100%, 55.786133%, 22.459412%)" offset="0.644531"/><stop stop-opacity="1" stop-color="rgb(100%, 55.836487%, 22.213745%)" offset="0.648438"/><stop stop-opacity="1" stop-color="rgb(100%, 55.886841%, 21.966553%)" offset="0.652344"/><stop stop-opacity="1" stop-color="rgb(100%, 55.937195%, 21.720886%)" offset="0.65625"/><stop stop-opacity="1" stop-color="rgb(100%, 55.987549%, 21.473694%)" offset="0.660156"/><stop stop-opacity="1" stop-color="rgb(100%, 56.039429%, 21.228027%)" offset="0.664063"/><stop stop-opacity="1" stop-color="rgb(100%, 56.089783%, 20.980835%)" offset="0.667969"/><stop stop-opacity="1" stop-color="rgb(100%, 56.140137%, 20.735168%)" offset="0.671875"/><stop stop-opacity="1" stop-color="rgb(100%, 56.190491%, 20.487976%)" offset="0.675781"/><stop stop-opacity="1" stop-color="rgb(100%, 56.240845%, 20.240784%)" offset="0.679688"/><stop stop-opacity="1" stop-color="rgb(100%, 56.291199%, 19.993591%)" offset="0.683594"/><stop stop-opacity="1" stop-color="rgb(100%, 56.341553%, 19.747925%)" offset="0.6875"/><stop stop-opacity="1" stop-color="rgb(100%, 56.391907%, 19.500732%)" offset="0.691406"/><stop stop-opacity="1" stop-color="rgb(100%, 56.442261%, 19.255066%)" offset="0.695312"/><stop stop-opacity="1" stop-color="rgb(100%, 56.492615%, 19.007874%)" offset="0.699219"/><stop stop-opacity="1" stop-color="rgb(100%, 56.544495%, 18.762207%)" offset="0.703125"/><stop stop-opacity="1" stop-color="rgb(100%, 56.594849%, 18.515015%)" offset="0.707031"/><stop stop-opacity="1" stop-color="rgb(100%, 56.645203%, 18.269348%)" offset="0.710938"/><stop stop-opacity="1" stop-color="rgb(100%, 56.695557%, 18.022156%)" offset="0.714844"/><stop stop-opacity="1" stop-color="rgb(100%, 56.745911%, 17.776489%)" offset="0.71875"/><stop stop-opacity="1" stop-color="rgb(100%, 56.796265%, 17.529297%)" offset="0.722656"/><stop stop-opacity="1" stop-color="rgb(100%, 56.846619%, 17.28363%)" offset="0.726562"/><stop stop-opacity="1" stop-color="rgb(100%, 56.896973%, 17.036438%)" offset="0.730469"/><stop stop-opacity="1" stop-color="rgb(100%, 56.948853%, 16.789246%)" offset="0.734375"/><stop stop-opacity="1" stop-color="rgb(100%, 56.999207%, 16.542053%)" offset="0.738281"/><stop stop-opacity="1" stop-color="rgb(100%, 57.049561%, 16.296387%)" offset="0.742188"/><stop stop-opacity="1" stop-color="rgb(100%, 57.099915%, 16.049194%)" offset="0.746094"/><stop stop-opacity="1" stop-color="rgb(100%, 57.150269%, 15.803528%)" offset="0.75"/><stop stop-opacity="1" stop-color="rgb(100%, 57.200623%, 15.556335%)" offset="0.753906"/><stop stop-opacity="1" stop-color="rgb(100%, 57.250977%, 15.310669%)" offset="0.757812"/><stop stop-opacity="1" stop-color="rgb(100%, 57.301331%, 15.063477%)" offset="0.761719"/><stop stop-opacity="1" stop-color="rgb(100%, 57.351685%, 14.81781%)" offset="0.765625"/><stop stop-opacity="1" stop-color="rgb(100%, 57.402039%, 14.570618%)" offset="0.769531"/><stop stop-opacity="1" stop-color="rgb(100%, 57.453918%, 14.324951%)" offset="0.773438"/><stop stop-opacity="1" stop-color="rgb(100%, 57.504272%, 14.077759%)" offset="0.777344"/><stop stop-opacity="1" stop-color="rgb(100%, 57.554626%, 13.832092%)" offset="0.78125"/><stop stop-opacity="1" stop-color="rgb(100%, 57.60498%, 13.5849%)" offset="0.785156"/><stop stop-opacity="1" stop-color="rgb(100%, 57.655334%, 13.337708%)" offset="0.789062"/><stop stop-opacity="1" stop-color="rgb(100%, 57.705688%, 13.090515%)" offset="0.792969"/><stop stop-opacity="1" stop-color="rgb(100%, 57.756042%, 12.844849%)" offset="0.796875"/><stop stop-opacity="1" stop-color="rgb(100%, 57.806396%, 12.597656%)" offset="0.800781"/><stop stop-opacity="1" stop-color="rgb(100%, 57.858276%, 12.35199%)" offset="0.804688"/><stop stop-opacity="1" stop-color="rgb(100%, 57.90863%, 12.104797%)" offset="0.808594"/><stop stop-opacity="1" stop-color="rgb(100%, 57.958984%, 11.859131%)" offset="0.8125"/><stop stop-opacity="1" stop-color="rgb(100%, 58.009338%, 11.611938%)" offset="0.816406"/><stop stop-opacity="1" stop-color="rgb(100%, 58.059692%, 11.366272%)" offset="0.820312"/><stop stop-opacity="1" stop-color="rgb(100%, 58.110046%, 11.11908%)" offset="0.824219"/><stop stop-opacity="1" stop-color="rgb(100%, 58.1604%, 10.873413%)" offset="0.828125"/><stop stop-opacity="1" stop-color="rgb(100%, 58.210754%, 10.626221%)" offset="0.832031"/><stop stop-opacity="1" stop-color="rgb(100%, 58.261108%, 10.380554%)" offset="0.835937"/><stop stop-opacity="1" stop-color="rgb(100%, 58.311462%, 10.133362%)" offset="0.839844"/><stop stop-opacity="1" stop-color="rgb(100%, 58.363342%, 9.886169%)" offset="0.84375"/><stop stop-opacity="1" stop-color="rgb(100%, 58.413696%, 9.638977%)" offset="0.847656"/><stop stop-opacity="1" stop-color="rgb(100%, 58.46405%, 9.393311%)" offset="0.851562"/><stop stop-opacity="1" stop-color="rgb(100%, 58.514404%, 9.146118%)" offset="0.855469"/><stop stop-opacity="1" stop-color="rgb(100%, 58.564758%, 8.900452%)" offset="0.859375"/><stop stop-opacity="1" stop-color="rgb(100%, 58.615112%, 8.653259%)" offset="0.863281"/><stop stop-opacity="1" stop-color="rgb(100%, 58.665466%, 8.407593%)" offset="0.867188"/><stop stop-opacity="1" stop-color="rgb(100%, 58.71582%, 8.1604%)" offset="0.871094"/><stop stop-opacity="1" stop-color="rgb(100%, 58.7677%, 7.914734%)" offset="0.875"/><stop stop-opacity="1" stop-color="rgb(100%, 58.818054%, 7.667542%)" offset="0.878906"/><stop stop-opacity="1" stop-color="rgb(100%, 58.868408%, 7.421875%)" offset="0.882812"/><stop stop-opacity="1" stop-color="rgb(100%, 58.918762%, 7.174683%)" offset="0.886719"/><stop stop-opacity="1" stop-color="rgb(100%, 58.969116%, 6.929016%)" offset="0.890625"/><stop stop-opacity="1" stop-color="rgb(100%, 59.01947%, 6.681824%)" offset="0.894531"/><stop stop-opacity="1" stop-color="rgb(100%, 59.069824%, 6.434631%)" offset="0.898438"/><stop stop-opacity="1" stop-color="rgb(100%, 59.120178%, 6.187439%)" offset="0.902344"/><stop stop-opacity="1" stop-color="rgb(100%, 59.170532%, 5.941772%)" offset="0.90625"/><stop stop-opacity="1" stop-color="rgb(100%, 59.220886%, 5.69458%)" offset="0.910156"/><stop stop-opacity="1" stop-color="rgb(100%, 59.272766%, 5.448914%)" offset="0.914063"/><stop stop-opacity="1" stop-color="rgb(100%, 59.32312%, 5.201721%)" offset="0.917969"/><stop stop-opacity="1" stop-color="rgb(100%, 59.373474%, 4.956055%)" offset="0.921875"/><stop stop-opacity="1" stop-color="rgb(100%, 59.423828%, 4.708862%)" offset="0.925781"/><stop stop-opacity="1" stop-color="rgb(100%, 59.474182%, 4.463196%)" offset="0.929688"/><stop stop-opacity="1" stop-color="rgb(100%, 59.524536%, 4.216003%)" offset="0.933594"/><stop stop-opacity="1" stop-color="rgb(100%, 59.57489%, 3.970337%)" offset="0.9375"/><stop stop-opacity="1" stop-color="rgb(100%, 59.625244%, 3.723145%)" offset="0.941406"/><stop stop-opacity="1" stop-color="rgb(100%, 59.677124%, 3.477478%)" offset="0.945312"/><stop stop-opacity="1" stop-color="rgb(100%, 59.727478%, 3.230286%)" offset="0.949219"/><stop stop-opacity="1" stop-color="rgb(100%, 59.777832%, 2.983093%)" offset="0.953125"/><stop stop-opacity="1" stop-color="rgb(100%, 59.828186%, 2.735901%)" offset="0.957031"/><stop stop-opacity="1" stop-color="rgb(100%, 59.87854%, 2.490234%)" offset="0.960938"/><stop stop-opacity="1" stop-color="rgb(100%, 59.928894%, 2.243042%)" offset="0.964844"/><stop stop-opacity="1" stop-color="rgb(100%, 59.979248%, 1.997375%)" offset="0.96875"/><stop stop-opacity="1" stop-color="rgb(100%, 60.029602%, 1.750183%)" offset="0.972656"/><stop stop-opacity="1" stop-color="rgb(100%, 60.081482%, 1.504517%)" offset="0.976562"/><stop stop-opacity="1" stop-color="rgb(100%, 60.131836%, 1.257324%)" offset="0.980469"/><stop stop-opacity="1" stop-color="rgb(100%, 60.18219%, 1.011658%)" offset="0.984375"/><stop stop-opacity="1" stop-color="rgb(100%, 60.232544%, 0.764465%)" offset="0.988281"/><stop stop-opacity="1" stop-color="rgb(100%, 60.282898%, 0.518799%)" offset="0.992188"/><stop stop-opacity="1" stop-color="rgb(100%, 60.333252%, 0.271606%)" offset="0.996094"/><stop stop-opacity="1" stop-color="rgb(100%, 60.383606%, 0.0259399%)" offset="1"/></linearGradient><clipPath id="9220c75a55"><rect x="0" width="1484" y="0" height="520"/></clipPath><clipPath id="1aedd313e8"><rect x="0" width="1231" y="0" height="420"/></clipPath><clipPath id="d76f998557"><rect x="0" width="1485" y="0" height="520"/></clipPath></defs><g transform="matrix(1, 0, 0, 1, 26, 28)"><g clip-path="url(#d76f998557)"><g clip-path="url(#1abfb36327)"><g clip-path="url(#02599b62a4)"><g transform="matrix(1, 0, 0, 1, 0, -0.000000000000014211)"><g clip-path="url(#9220c75a55)"><g clip-path="url(#1c00325c8f)"><g clip-path="url(#7258d5eb53)"><path fill="url(#5c9d3f7bc8)" d="M 0.941406 0.585938 L 0.941406 519.414062 L 1482.433594 519.414062 L 1482.433594 0.585938 Z M 0.941406 0.585938 " fill-rule="nonzero"/></g></g></g></g></g></g><g transform="matrix(1, 0, 0, 1, 126, 50)"><g clip-path="url(#1aedd313e8)"><g fill="#ffffff" fill-opacity="1"><g transform="translate(1.479659, 329.358146)"><g><path d="M 28.359375 0 L 28.359375 -167.375 L 51.484375 -167.375 L 53.9375 -143.03125 L 54.875 -143.03125 C 62.0625 -151.039062 70.019531 -157.816406 78.75 -163.359375 C 87.488281 -168.910156 96.894531 -171.6875 106.96875 -171.6875 C 119.707031 -171.6875 129.773438 -168.8125 137.171875 -163.0625 C 144.566406 -157.3125 149.910156 -149.503906 153.203125 -139.640625 C 161.828125 -149.085938 170.660156 -156.789062 179.703125 -162.75 C 188.742188 -168.707031 198.300781 -171.6875 208.375 -171.6875 C 225.632812 -171.6875 238.425781 -166.085938 246.75 -154.890625 C 255.070312 -143.691406 259.234375 -127.40625 259.234375 -106.03125 L 259.234375 0 L 231.1875 0 L 231.1875 -102.34375 C 231.1875 -118.164062 228.664062 -129.566406 223.625 -136.546875 C 218.59375 -143.535156 210.734375 -147.03125 200.046875 -147.03125 C 187.515625 -147.03125 173.441406 -138.503906 157.828125 -121.453125 L 157.828125 0 L 129.765625 0 L 129.765625 -102.34375 C 129.765625 -118.164062 127.25 -129.566406 122.21875 -136.546875 C 117.1875 -143.535156 109.328125 -147.03125 98.640625 -147.03125 C 85.691406 -147.03125 71.613281 -138.503906 56.40625 -121.453125 L 56.40625 0 Z M 28.359375 0 "/></g></g></g><g fill="#ffffff" fill-opacity="1"><g transform="translate(286.923283, 329.358146)"><g><path d="M 28.359375 0 L 28.359375 -167.375 L 56.40625 -167.375 L 56.40625 0 Z M 42.53125 -201.90625 C 36.988281 -201.90625 32.367188 -203.648438 28.671875 -207.140625 C 24.972656 -210.640625 23.125 -214.957031 23.125 -220.09375 C 23.125 -225.84375 24.972656 -230.3125 28.671875 -233.5 C 32.367188 -236.6875 36.988281 -238.28125 42.53125 -238.28125 C 48.082031 -238.28125 52.707031 -236.6875 56.40625 -233.5 C 60.101562 -230.3125 61.953125 -225.84375 61.953125 -220.09375 C 61.953125 -214.957031 60.101562 -210.640625 56.40625 -207.140625 C 52.707031 -203.648438 48.082031 -201.90625 42.53125 -201.90625 Z M 42.53125 -201.90625 "/></g></g></g><g fill="#ffffff" fill-opacity="1"><g transform="translate(371.693295, 329.358146)"><g><path d="M 4.625 0 L 59.796875 -87.234375 L 8.9375 -167.375 L 39.140625 -167.375 L 61.65625 -130.390625 C 64.320312 -125.867188 67.09375 -121.296875 69.96875 -116.671875 C 72.84375 -112.046875 75.617188 -107.367188 78.296875 -102.640625 L 79.53125 -102.640625 C 82.195312 -107.367188 84.765625 -112.046875 87.234375 -116.671875 C 89.703125 -121.296875 92.164062 -125.867188 94.625 -130.390625 L 115.28125 -167.375 L 144.5625 -167.375 L 93.703125 -84.453125 L 148.890625 0 L 118.0625 0 L 93.40625 -39.140625 C 90.726562 -44.285156 87.847656 -49.375 84.765625 -54.40625 C 81.679688 -59.4375 78.597656 -64.316406 75.515625 -69.046875 L 73.984375 -69.046875 C 71.109375 -64.316406 68.226562 -59.4375 65.34375 -54.40625 C 62.46875 -49.375 59.59375 -44.285156 56.71875 -39.140625 L 34.21875 0 Z M 4.625 0 "/></g></g></g><g fill="#ffffff" fill-opacity="1"><g transform="translate(525.203994, 329.358146)"><g><path d="M 28.359375 0 L 28.359375 -167.375 L 56.40625 -167.375 L 56.40625 0 Z M 42.53125 -201.90625 C 36.988281 -201.90625 32.367188 -203.648438 28.671875 -207.140625 C 24.972656 -210.640625 23.125 -214.957031 23.125 -220.09375 C 23.125 -225.84375 24.972656 -230.3125 28.671875 -233.5 C 32.367188 -236.6875 36.988281 -238.28125 42.53125 -238.28125 C 48.082031 -238.28125 52.707031 -236.6875 56.40625 -233.5 C 60.101562 -230.3125 61.953125 -225.84375 61.953125 -220.09375 C 61.953125 -214.957031 60.101562 -210.640625 56.40625 -207.140625 C 52.707031 -203.648438 48.082031 -201.90625 42.53125 -201.90625 Z M 42.53125 -201.90625 "/></g></g></g><g fill="#ffffff" fill-opacity="1"><g transform="translate(609.973977, 329.358146)"><g><path d="M 13.5625 0 L 13.5625 -16.640625 C 49.113281 -47.671875 75.265625 -74.898438 92.015625 -98.328125 C 108.765625 -121.753906 117.140625 -143.128906 117.140625 -162.453125 C 117.140625 -175.398438 113.695312 -186.082031 106.8125 -194.5 C 99.925781 -202.925781 89.492188 -207.140625 75.515625 -207.140625 C 66.273438 -207.140625 57.695312 -204.625 49.78125 -199.59375 C 41.875 -194.5625 34.835938 -188.34375 28.671875 -180.9375 L 12.328125 -196.96875 C 21.578125 -207.039062 31.390625 -215.109375 41.765625 -221.171875 C 52.140625 -227.234375 64.519531 -230.265625 78.90625 -230.265625 C 99.050781 -230.265625 115.03125 -224.148438 126.84375 -211.921875 C 138.65625 -199.691406 144.5625 -183.507812 144.5625 -163.375 C 144.5625 -148.375 140.863281 -133.21875 133.46875 -117.90625 C 126.070312 -102.59375 115.742188 -87.023438 102.484375 -71.203125 C 89.234375 -55.378906 73.769531 -39.039062 56.09375 -22.1875 C 62.0625 -22.601562 68.28125 -23.066406 74.75 -23.578125 C 81.21875 -24.097656 87.332031 -24.359375 93.09375 -24.359375 L 155.671875 -24.359375 L 155.671875 0 Z M 13.5625 0 "/></g></g></g><g fill="#ffffff" fill-opacity="1"><g transform="translate(781.055246, 329.358146)"><g><path d="M 14.171875 -75.515625 L 14.171875 -97.09375 L 93.09375 -97.09375 L 93.09375 -75.515625 Z M 14.171875 -75.515625 "/></g></g></g><g fill="#ffffff" fill-opacity="1"><g transform="translate(881.237924, 329.358146)"><g><path d="M 73.0625 4 C 58.675781 4 46.34375 0.972656 36.0625 -5.078125 C 25.789062 -11.140625 17.363281 -20.03125 10.78125 -31.75 L 31.140625 -46.234375 C 36.273438 -37.398438 42.023438 -30.976562 48.390625 -26.96875 C 54.765625 -22.96875 62.0625 -20.96875 70.28125 -20.96875 C 82.40625 -20.96875 91.5 -24.71875 97.5625 -32.21875 C 103.625 -39.71875 106.65625 -51.992188 106.65625 -69.046875 L 106.65625 -225.953125 L 135.015625 -225.953125 L 135.015625 -66.28125 C 135.015625 -53.332031 132.90625 -41.566406 128.6875 -30.984375 C 124.476562 -20.398438 117.851562 -11.921875 108.8125 -5.546875 C 99.769531 0.816406 87.851562 4 73.0625 4 Z M 73.0625 4 "/></g></g></g><g fill="#ffffff" fill-opacity="1"><g transform="translate(1046.462248, 329.358146)"><g><path d="M 93.703125 4 C 77.679688 4 62.9375 0.972656 49.46875 -5.078125 C 36.007812 -11.140625 24.347656 -19.3125 14.484375 -29.59375 L 31.4375 -49.015625 C 39.65625 -40.585938 49.210938 -33.804688 60.109375 -28.671875 C 71.003906 -23.535156 82.304688 -20.96875 94.015625 -20.96875 C 108.804688 -20.96875 120.414062 -24.359375 128.84375 -31.140625 C 137.269531 -37.921875 141.484375 -46.859375 141.484375 -57.953125 C 141.484375 -65.765625 139.835938 -71.976562 136.546875 -76.59375 C 133.265625 -81.21875 128.796875 -85.175781 123.140625 -88.46875 C 117.492188 -91.757812 111.070312 -94.945312 103.875 -98.03125 L 71.203125 -112.203125 C 64.210938 -115.285156 57.171875 -119.238281 50.078125 -124.0625 C 42.992188 -128.894531 37.085938 -135.0625 32.359375 -142.5625 C 27.640625 -150.0625 25.28125 -159.257812 25.28125 -170.15625 C 25.28125 -181.863281 28.359375 -192.238281 34.515625 -201.28125 C 40.679688 -210.320312 49.160156 -217.410156 59.953125 -222.546875 C 70.742188 -227.691406 82.921875 -230.265625 96.484375 -230.265625 C 109.835938 -230.265625 122.269531 -227.691406 133.78125 -222.546875 C 145.289062 -217.410156 155.050781 -210.632812 163.0625 -202.21875 L 147.953125 -184.03125 C 140.972656 -190.601562 133.269531 -195.789062 124.84375 -199.59375 C 116.414062 -203.394531 106.960938 -205.296875 96.484375 -205.296875 C 83.742188 -205.296875 73.519531 -202.316406 65.8125 -196.359375 C 58.101562 -190.398438 54.25 -182.28125 54.25 -172 C 54.25 -164.8125 56.148438 -158.851562 59.953125 -154.125 C 63.753906 -149.394531 68.53125 -145.539062 74.28125 -142.5625 C 80.039062 -139.582031 85.796875 -136.859375 91.546875 -134.390625 L 123.921875 -120.53125 C 132.753906 -116.832031 140.660156 -112.410156 147.640625 -107.265625 C 154.628906 -102.128906 160.179688 -95.8125 164.296875 -88.3125 C 168.410156 -80.8125 170.46875 -71.410156 170.46875 -60.109375 C 170.46875 -48.191406 167.332031 -37.398438 161.0625 -27.734375 C 154.789062 -18.078125 145.953125 -10.375 134.546875 -4.625 C 123.140625 1.125 109.523438 4 93.703125 4 Z M 93.703125 4 "/></g></g></g></g></g></g></g></svg>